# Blender 4.1.1
# www.blender.org
mtllib House.mtl
o House
v -2.903381 0.000000 2.903381
v 2.903381 0.000000 2.903381
v -2.903381 0.000000 -2.903381
v 2.903381 0.000000 -2.903381
v -2.903381 3.761656 2.903381
v 2.903381 3.761656 2.903381
v -2.903381 3.761656 -2.903381
v 2.903381 3.761656 -2.903381
v 0.000000 6.620353 0.000000
v 0.000000 6.620353 0.000000
v 0.000000 6.620353 0.000000
v 0.000000 6.620353 0.000000
v -2.970432 -0.067051 2.970432
v 2.970432 -0.067051 2.970432
v -2.970432 -0.067051 -2.970432
v 2.970432 -0.067051 -2.970432
v -2.978865 3.807391 2.978865
v 2.978865 3.807391 2.978865
v -2.978865 3.807391 -2.978865
v 2.978865 3.807391 -2.978865
v -0.046922 6.715663 0.046922
v 0.046922 6.715663 0.046922
v -0.046922 6.715663 -0.046922
v 0.046922 6.715663 -0.046922
vn -0.0000 1.0000 -0.0000
vn -0.0000 -0.0000 -1.0000
vn -1.0000 -0.0000 -0.0000
vn 1.0000 -0.0000 -0.0000
vn -0.0000 -0.0000 1.0000
vn -0.0000 -1.0000 -0.0000
vn -0.0000 -0.0022 1.0000
vn 1.0000 -0.0022 -0.0000
vn -1.0000 -0.0022 -0.0000
vn -0.0000 -0.0022 -1.0000
vn -0.0000 0.7100 -0.7042
vn -0.0000 0.7100 0.7042
vn 0.7042 0.7100 -0.0000
vn -0.7042 0.7100 -0.0000
vn 0.8972 0.4417 -0.0000
vn -0.0000 0.4417 -0.8972
vn -0.8972 0.4417 -0.0000
vn -0.0000 0.4417 0.8972
vn -0.0000 -0.7126 0.7016
vn -0.0000 -0.7126 -0.7016
vn -0.7016 -0.7126 -0.0000
vn 0.7016 -0.7126 -0.0000
vt 0.826545 0.277075
vt 0.555724 0.547896
vt 0.555724 0.277075
vt 0.173455 0.937242
vt 0.000000 0.666421
vt 0.173455 0.666421
vt 0.346910 0.937242
vt 0.173455 0.666421
vt 0.346910 0.666421
vt 0.520365 0.937242
vt 0.346910 0.666421
vt 0.520365 0.666421
vt 1.000000 0.547896
vt 0.826545 0.277075
vt 1.000000 0.277075
vt 0.826545 0.818717
vt 0.691134 0.683307
vt 0.555724 0.818717
vt 0.826545 0.547896
vt 0.832799 0.277075
vt 0.555724 0.000000
vt 0.832799 0.000000
vt 0.000000 0.154614
vt 0.277469 0.333210
vt 0.000393 0.333210
vt 0.277862 0.154614
vt 0.555331 0.333210
vt 0.278255 0.333210
vt 0.000000 0.487824
vt 0.277469 0.666421
vt 0.000393 0.666421
vt 0.277862 0.487824
vt 0.555331 0.666421
vt 0.278255 0.666421
vt 0.414605 0.333210
vt 0.555724 0.487824
vt 0.136743 0.000000
vt 0.414605 0.000000
vt 0.555724 0.154614
vt 0.136743 0.333210
vt 0.520365 0.671626
vt 0.520365 0.666421
vt 0.524336 0.668261
vt 0.524336 0.671626
vt 0.524336 0.666421
vt 0.528307 0.668261
vt 0.528307 0.671626
vt 0.528307 0.666421
vt 0.532279 0.668261
vt 0.532278 0.671626
vt 0.532278 0.666421
vt 0.536250 0.668261
vt 0.000000 0.937242
vt 0.173455 0.937242
vt 0.346910 0.937242
vt 0.826545 0.547896
vt 0.555724 0.277075
vt 0.418981 0.333210
vt 0.141119 0.000000
vt 0.418981 0.000000
vt 0.141119 0.333210
s 0
usemtl House
f 23/35/11 20/36/11 19/32/11
f 22/37/12 17/26/12 18/23/12
f 24/38/13 18/39/13 20/26/13
f 21/40/14 19/32/14 17/29/14
f 9/41/15 23/42/15 21/43/15
f 10/44/16 21/45/16 22/46/16
f 12/47/17 22/48/17 24/49/17
f 11/50/18 24/51/18 23/52/18
f 23/35/11 24/58/11 20/36/11
f 22/37/12 21/59/12 17/26/12
f 24/38/13 22/60/13 18/39/13
f 21/40/14 23/61/14 19/32/14
f 9/41/1 11/41/1 23/42/1
f 10/44/1 9/44/1 21/45/1
f 12/47/1 10/47/1 22/48/1
f 11/50/1 12/50/1 24/51/1
usemtl floor
f 2/1/1 3/2/1 1/3/1
f 2/1/1 4/19/1 3/2/1
usemtl wall
f 1/4/2 6/5/2 2/6/2
f 2/7/3 8/8/3 4/9/3
f 3/10/4 5/11/4 1/12/4
f 4/13/5 7/14/5 3/15/5
f 7/16/1 12/17/1 11/17/1
f 6/2/1 9/17/1 10/17/1
f 8/18/1 10/17/1 12/17/1
f 5/19/1 11/17/1 9/17/1
f 15/20/6 14/21/6 13/22/6
f 18/23/7 13/24/7 14/25/7
f 20/26/8 14/27/8 16/28/8
f 17/29/9 15/30/9 13/31/9
f 19/32/10 16/33/10 15/34/10
f 1/4/2 5/53/2 6/5/2
f 2/7/3 6/54/3 8/8/3
f 3/10/4 7/55/4 5/11/4
f 4/13/5 8/56/5 7/14/5
f 7/16/19 8/18/19 12/17/19
f 6/2/20 5/19/20 9/17/20
f 8/18/21 6/2/21 10/17/21
f 5/19/22 7/16/22 11/17/22
f 15/20/6 16/57/6 14/21/6
f 18/23/7 17/26/7 13/24/7
f 20/26/8 18/39/8 14/27/8
f 17/29/9 19/32/9 15/30/9
f 19/32/10 20/36/10 16/33/10
